#!OML:ASF X:\für Bonn\!DataBase\2005_08_10_Bjorn_Final\c3d\bjorn.ASF
:FULLY-SPECIFIED
:DEGREES
121
root 17.1577 17.5213 0.571391 1093.94 -71.6384 -331.77
lowerback 52.7499 0.51384 11.6253
upperback 22.0302 2.57829 -2.855
thorax 4.68071 2.13767 -9.27089
lowerneck 8.02696 -5.72336 10.424
upperneck -17.3263 -6.89455 -2.3771
head -7.09035 -3.91308 -1.85298
rclavicle 4.13472e-014 1.27222e-014
rhumerus 78.0775 -12.9488 -85.4966
rradius 8.20878
rwrist 2.80877
rhand -22.741 15.5234
rfingers 7.12502
rthumb 3.69325 -14.4244
lclavicle 4.13472e-014 1.27222e-014
lhumerus -5.797 -19.7161 81.7447
lradius 46.4444
lwrist 3.11168
lhand -27.5472 -10.7295
lfingers 7.12502
lthumb -0.948638 19.2481
rfemur -83.5113 -15.7191 15.0673
rtibia 62.1794
rfoot -12.9286 11.7306
rtoes -3.85952
lfemur -79.7238 -1.38613 -26.1371
ltibia 58.8851
lfoot -12.1308 -6.47455
ltoes -6.35511
122
root 17.1271 17.5138 0.548449 1093.82 -71.2999 -331.627
lowerback 53.1721 0.349542 11.7421
upperback 21.9404 2.51148 -2.82251
thorax 4.54076 2.10858 -9.25559
lowerneck 7.90805 -5.73342 10.3954
upperneck -17.3458 -6.92014 -2.33056
head -7.07492 -3.93048 -1.83392
rclavicle 6.36111e-015 -6.04305e-014
rhumerus 78.11 -12.6461 -84.9647
rradius 8.09223
rwrist 2.74696
rhand -23.1692 15.6728
rfingers 7.12502
rthumb 3.27973 -14.2817
lclavicle 6.36111e-015 -6.04305e-014
lhumerus -5.87724 -19.6263 82.0649
lradius 46.4823
lwrist 2.96595
lhand -27.7648 -10.8675
lfingers 7.12502
lthumb -1.15873 19.1091
rfemur -83.5214 -15.9181 15.0504
rtibia 62.4494
rfoot -13.1738 11.6942
rtoes -3.65498
lfemur -79.6848 -1.73806 -25.9461
ltibia 58.9599
lfoot -12.2608 -6.3255
ltoes -6.82843
123
root 17.0965 17.5072 0.524942 1093.74 -70.9795 -331.517
lowerback 53.5869 0.205116 11.8568
upperback 21.8445 2.46751 -2.78993
thorax 4.40048 2.08983 -9.2463
lowerneck 7.86122 -5.7624 10.3667
upperneck -17.4203 -6.95864 -2.25632
head -7.09005 -3.95692 -1.80196
rclavicle -3.49861e-014 4.77083e-015
rhumerus 78.1186 -12.3713 -84.4353
rradius 7.98554
rwrist 2.72207
rhand -23.6664 15.8517
rfingers 7.12502
rthumb 2.79949 -14.1097
lclavicle -3.49861e-014 4.77083e-015
lhumerus -5.94538 -19.5325 82.4015
lradius 46.4751
lwrist 2.79656
lhand -27.92 -11.0877
lfingers 7.12502
lthumb -1.30866 18.888
rfemur -83.5139 -16.0886 15.0434
rtibia 62.6957
rfoot -13.4468 11.5965
rtoes -3.60077
lfemur -79.6364 -2.04278 -25.7729
ltibia 59.0115
lfoot -12.3515 -6.23118
ltoes -7.02081
124
root 17.0669 17.5017 0.502736 1093.67 -70.6526 -331.437
lowerback 54.0287 0.0400782 11.9653
upperback 21.7141 2.40855 -2.76735
thorax 4.21703 2.06016 -9.23948
lowerneck 7.88004 -5.79122 10.3382
upperneck -17.4968 -6.98974 -2.18953
head -7.11711 -3.978 -1.77127
rclavicle 6.36111e-015 -4.92986e-014
rhumerus 78.0816 -12.0568 -83.9118
rradius 7.85715
rwrist 2.72661
rhand -24.2149 16.1897
rfingers 7.12502
rthumb 2.26985 -13.778
lclavicle 6.36111e-015 -4.92986e-014
lhumerus -6.0699 -19.4523 82.7315
lradius 46.5139
lwrist 2.62417
lhand -28.0926 -11.2204
lfingers 7.12502
lthumb -1.47533 18.7543
rfemur -83.4802 -16.2667 15.0356
rtibia 62.9104
rfoot -13.6996 11.5324
rtoes -3.57593
lfemur -79.5676 -2.36926 -25.5727
ltibia 59.0418
lfoot -12.4432 -6.09631
ltoes -7.22072
125
root 17.0375 17.4987 0.480453 1093.55 -70.3459 -331.299
lowerback 54.4747 -0.109233 12.0498
upperback 21.556 2.36327 -2.75812
thorax 4.00362 2.03387 -9.24099
lowerneck 8.0119 -5.8396 10.3729
upperneck -17.6041 -7.02794 -2.14427
head -7.17808 -4.00365 -1.75314
rclavicle -1.20861e-013 8.74653e-014
rhumerus 77.9477 -11.7818 -83.3963
rradius 7.84091
rwrist 2.74741
rhand -24.8027 16.5083
rfingers 7.12502
rthumb 1.7021 -13.4646
lclavicle -1.20861e-013 8.74653e-014
lhumerus -6.24317 -19.4686 83.0322
lradius 46.5697
lwrist 2.44516
lhand -28.2375 -11.392
lfingers 7.12502
lthumb -1.6153 18.5816
rfemur -83.434 -16.4315 15.003
rtibia 63.1003
rfoot -13.9523 11.4509
rtoes -3.65377
lfemur -79.4916 -2.65315 -25.4277
ltibia 59.0478
lfoot -12.5212 -6.04382
ltoes -7.32798
